<svg id="Layer_1" data-name="Layer 1" xmlns="http://www.w3.org/2000/svg" xmlns:xlink="http://www.w3.org/1999/xlink" viewBox="0 0 928.94 223.61"><defs><style>.cls-1{fill:url(#linear-gradient);}.cls-2{fill:url(#linear-gradient-2);}.cls-3{fill:url(#linear-gradient-3);}.cls-4{fill:url(#linear-gradient-4);}.cls-5{fill:url(#linear-gradient-5);}.cls-6{fill:url(#linear-gradient-6);}.cls-7{fill:url(#linear-gradient-7);}.cls-8{font-size:187.94px;stroke:#4d4d4d;stroke-miterlimit:10;stroke-width:1.29px;font-family:HWTArtz, HWT Artz;letter-spacing:0.2em;}.cls-14,.cls-8{fill:#333;}.cls-9{letter-spacing:0.3em;}.cls-10{fill:url(#linear-gradient-8);}.cls-11{fill:url(#linear-gradient-9);}.cls-12{fill:url(#linear-gradient-10);}.cls-13{fill:url(#linear-gradient-11);}.cls-15{fill:url(#radial-gradient);}.cls-16{opacity:0.8;fill:url(#linear-gradient-12);}.cls-17{fill:#33312c;}.cls-18,.cls-19{fill:#fff;}.cls-18{opacity:0.95;}.cls-19{opacity:0.92;}.cls-20{opacity:0.9;fill:url(#linear-gradient-13);}.cls-21{fill:url(#linear-gradient-14);}.cls-22{fill:url(#linear-gradient-15);}.cls-23{fill:url(#linear-gradient-16);}.cls-24{fill:url(#linear-gradient-17);}</style><linearGradient id="linear-gradient" x1="58.18" y1="417.34" x2="58.18" y2="417.34" gradientUnits="userSpaceOnUse"><stop offset="0.03" stop-color="#ffb806"/><stop offset="0.34" stop-color="#fccb04"/><stop offset="0.95" stop-color="#f3fc00"/><stop offset="0.98" stop-color="#f3ff00"/></linearGradient><linearGradient id="linear-gradient-2" x1="537.81" y1="699.37" x2="537.81" y2="699.37" gradientUnits="userSpaceOnUse"><stop offset="0.21" stop-color="#002f7f"/><stop offset="0.31" stop-color="#11428b"/><stop offset="0.51" stop-color="#3c74ab"/><stop offset="0.79" stop-color="#81c3dd"/><stop offset="0.95" stop-color="#acf4fc"/></linearGradient><linearGradient id="linear-gradient-3" x1="544.77" y1="731.58" x2="544.77" y2="731.58" xlink:href="#linear-gradient-2"/><linearGradient id="linear-gradient-4" x1="232.28" y1="741.16" x2="232.28" y2="741.16" gradientUnits="userSpaceOnUse"><stop offset="0.22" stop-color="#ffb806"/><stop offset="0.46" stop-color="#fccb04"/><stop offset="0.93" stop-color="#f3fc00"/><stop offset="0.96" stop-color="#f3ff00"/></linearGradient><linearGradient id="linear-gradient-5" x1="185.27" y1="658.46" x2="185.27" y2="658.46" xlink:href="#linear-gradient-4"/><linearGradient id="linear-gradient-6" x1="167.86" y1="675.87" x2="167.86" y2="675.87" xlink:href="#linear-gradient"/><linearGradient id="linear-gradient-7" x1="240.98" y1="698.5" x2="240.98" y2="698.5" gradientUnits="userSpaceOnUse"><stop offset="0.21" stop-color="#008eaf"/><stop offset="0.33" stop-color="#1399b8"/><stop offset="0.57" stop-color="#45b7ce"/><stop offset="0.9" stop-color="#94e6f1"/><stop offset="1" stop-color="#acf4fc"/></linearGradient><linearGradient id="linear-gradient-8" x1="293.13" y1="741.9" x2="292.17" y2="699.24" xlink:href="#linear-gradient-7"/><linearGradient id="linear-gradient-9" x1="-1632.93" y1="5277.75" x2="-1636.7" y2="5350.1" gradientTransform="translate(-1432.98 5965.38) rotate(-177.44)" gradientUnits="userSpaceOnUse"><stop offset="0" stop-color="#e9004e"/><stop offset="0.17" stop-color="#ec135f"/><stop offset="0.51" stop-color="#f4458c"/><stop offset="0.96" stop-color="#ff8dce"/></linearGradient><linearGradient id="linear-gradient-10" x1="575.83" y1="617.02" x2="559.01" y2="595.49" gradientUnits="userSpaceOnUse"><stop offset="0" stop-color="#ffb806"/><stop offset="0.32" stop-color="#fccb04"/><stop offset="0.95" stop-color="#f3fc00"/><stop offset="0.98" stop-color="#f3ff00"/></linearGradient><linearGradient id="linear-gradient-11" x1="563.99" y1="726.17" x2="537.04" y2="691.42" xlink:href="#linear-gradient-10"/><radialGradient id="radial-gradient" cx="838.93" cy="592.45" r="56.65" gradientTransform="translate(-134.95 -456.24) scale(0.96 0.93)" gradientUnits="userSpaceOnUse"><stop offset="0.47" stop-color="#efefef"/><stop offset="0.74" stop-color="#ededed"/><stop offset="0.86" stop-color="#e6e6e6"/><stop offset="0.95" stop-color="#d9d9d9"/><stop offset="1" stop-color="#cecece"/></radialGradient><linearGradient id="linear-gradient-12" x1="639.46" y1="91.72" x2="707.02" y2="91.72" xlink:href="#linear-gradient-10"/><linearGradient id="linear-gradient-13" x1="664.77" y1="113.19" x2="690.36" y2="113.37" gradientUnits="userSpaceOnUse"><stop offset="0" stop-color="#fff" stop-opacity="0.9"/><stop offset="1" stop-color="#fff7bb"/></linearGradient><linearGradient id="linear-gradient-14" x1="2023.25" y1="3548.05" x2="2062.01" y2="3551.86" gradientTransform="matrix(0.17, -0.98, 0.98, 0.17, -3211.02, 2002.33)" gradientUnits="userSpaceOnUse"><stop offset="0.04" stop-color="#9300bf"/><stop offset="0.08" stop-color="#980ac3"/><stop offset="0.41" stop-color="#b94edc"/><stop offset="0.68" stop-color="#d180ef"/><stop offset="0.88" stop-color="#e09efb"/><stop offset="1" stop-color="#e6aaff"/></linearGradient><linearGradient id="linear-gradient-15" x1="1820.53" y1="1901.6" x2="1889.12" y2="1910.01" gradientTransform="matrix(-0.06, -1, -1, 0.06, 3036.41, 2361.6)" gradientUnits="userSpaceOnUse"><stop offset="0.16" stop-color="#f94b4b"/><stop offset="0.42" stop-color="#f86e81"/><stop offset="0.68" stop-color="#f88eb2"/><stop offset="0.88" stop-color="#f7a2d0"/><stop offset="1" stop-color="#f7aadc"/></linearGradient><linearGradient id="linear-gradient-16" x1="1331.53" y1="953.66" x2="1324.39" y2="920.82" gradientTransform="translate(-510.12 14.42) rotate(-9.76)" xlink:href="#linear-gradient-15"/><linearGradient id="linear-gradient-17" x1="215.54" y1="616.32" x2="209.2" y2="589.74" gradientUnits="userSpaceOnUse"><stop offset="0.04" stop-color="#07e05f"/><stop offset="0.07" stop-color="#12e260"/><stop offset="0.24" stop-color="#4dea63"/><stop offset="0.41" stop-color="#7ff266"/><stop offset="0.57" stop-color="#a6f869"/><stop offset="0.71" stop-color="#c1fc6b"/><stop offset="0.84" stop-color="#d2fe6c"/><stop offset="0.93" stop-color="#d8ff6c"/></linearGradient></defs><title>calcmon-hero</title><path class="cls-1" d="M58.18,417.34" transform="translate(-167.22 -563.44)"/><text x="-167.22" y="-563.44"/><path class="cls-2" d="M537.81,699.37" transform="translate(-167.22 -563.44)"/><path class="cls-3" d="M544.77,731.58" transform="translate(-167.22 -563.44)"/><path class="cls-4" d="M232.28,741.16" transform="translate(-167.22 -563.44)"/><path class="cls-5" d="M185.27,658.46" transform="translate(-167.22 -563.44)"/><path class="cls-6" d="M167.86,675.87" transform="translate(-167.22 -563.44)"/><path class="cls-7" d="M241,698.5" transform="translate(-167.22 -563.44)"/><text class="cls-8" transform="translate(0.65 161.33)">CALC<tspan class="cls-9" x="456.31" y="0">MON</tspan></text><path class="cls-10" d="M276.32,721.87c.81,2,1.72,4.23,3.87,5.16,1.63.7,2.9.19,3.88,1.29,1.13,1.28.15,2.82,1.29,3.88s3.21.91,3.87,0-.8-2.45,0-3.88a3,3,0,0,1,2.59-1.29,3.63,3.63,0,0,1,2.58,1.29c.63.81.78,1.83,0,6.46a50.29,50.29,0,0,1-1.29,6.46c-1,2.81-1.94,4-1.29,5.16a3,3,0,0,0,2.58,1.29A3.14,3.14,0,0,0,297,746.4c.69-1,.28-2.19,0-3.87-.58-3.46-.46-8.23,1.29-9a1.65,1.65,0,0,1,1.29,0c1.1.48,1.27,2.29,1.29,2.58.12,1.29-.35,1.66,0,2.58.2.51.68,1.3,1.29,1.29.77,0,1.25-1.18,1.3-1.29a6.54,6.54,0,0,0,0-2.58c-.17-1.73-.34-2.33,0-2.58s.93.26,1.29,0c.59-.44-.68-2.16,0-3.88.21-.53.7-1.29,1.29-1.29s1.17,1,1.29,1.29a3.08,3.08,0,0,1,.13,2.16c-.44,1.91.77,3.21,1.16,3,.66-.34,1-1.14,1.29-3.87a29.63,29.63,0,0,0,0-7.75c-.52-3.4-1-3.69-1.29-6.46-.41-3.78.3-4.24,0-6.45-.79-5.82-6.17-5.84-8-12.06-1.35-4.57.68-8-1.29-9s-4.19,1.64-6.45,1.29c-3-.46-6.06-6.33-7.49-28q-2.91,15.09-5.85,30.15L276.32,709C275.67,710.94,274.12,716.46,276.32,721.87Z" transform="translate(-167.22 -563.44)"/><path class="cls-11" d="M435.14,750.27c-1.62-2.37,1-4.87,1.29-10.33.35-7.12-3.6-14.23-6.46-14.2-2.08,0-2.77,3.94-5.16,3.87s-3.38-4.13-5.17-3.87c-1.42.21-2.38,3-2.58,5.17-.4,4.28,2.28,5.82,1.29,9-.52,1.68-2,3.76-3.87,3.88a4.52,4.52,0,0,1-3.88-2.58c-1.33-2.58.36-5.14,1.29-9,.87-3.62.4-5.51,0-11.62-.24-3.79-.16-11.13,0-25.83.23-20.16,1.07-20.64,1.3-20.66,1.57-.12,3.43,20.48,7,20.5,2.4,0,3.91-9,5.57-8.8,2.2.31.6,16,4.4,17,2.67.68,5.83-5.69,8-4.82,2.67,1.1-1.12,11.55,3.47,14.86,1.68,1.21,3.06.44,6.1,2.37a17.24,17.24,0,0,1,4.23,4.09c5.45,6.23,16.88,5.86,16.79,6.45-.06.33-3.44-.18-5.17,1.29a10.74,10.74,0,0,0-1.24,1.16,6.33,6.33,0,0,1-1.34,1.42c-3.15,2.07-7-2.26-11.62-1.29-4,.85-6.87,5.46-7.75,9-1.69,6.9,3.56,11.85,1.29,14.2C441.25,753.27,436.7,752.58,435.14,750.27Z" transform="translate(-167.22 -563.44)"/><path class="cls-12" d="M548.76,595.33a58.93,58.93,0,0,1,19.37-5.16c8.51-1,12.83-1.44,15.49,1.29,2.13,2.18,2.34,5.37,2.58,9,.33,5-.57,8.28-1.29,11.62-2.48,11.6-.64,20.62-1.29,20.66-.81,0-1.52-14.07-3.87-14.21-1.93-.11-3.45,9.21-5.17,9-2.22-.21-1.32-16-5.16-16.78-2.57-.54-5.19,5.92-7.75,5.16s-1.72-7.89-5.16-9c-1.64-.54-2.74.78-3.88,0-2-1.36.44-6-1.29-7.74-2.78-2.81-13.87,4.44-14.2,3.87C536.91,602.7,541.49,598.72,548.76,595.33Z" transform="translate(-167.22 -563.44)"/><path class="cls-13" d="M521.64,674.09c-1-4.12-1.41-6.82-1.41-6.82-1.71-11.53-.88-20.27-1.17-20.29s-1.57,7.08-1.29,16.79c.29,10,1.89,9.9,2.58,20.65.62,9.55,0,19.7,2.59,20.66.15.06.9.34,1.29,0,.69-.6-.75-2.38,0-3.87a2.39,2.39,0,0,1,2.58-1.29c.8.29,1.05,1.4,1.29,2.58,1.36,6.52,1.58,8.84,2.58,9s1.74-1.56,2.59-1.29c1.91.61-.11,9.14,2.58,10.33,1,.45,1.89-.56,2.58,0,1,.8-.18,3.38-1.29,9-.69,3.53-.64,4.55,0,5.17a3.06,3.06,0,0,0,3.87,0c1.73-1.79-1.81-5.8,0-9a5.68,5.68,0,0,1,3.88-2.58c5.55-1,8.77,8.45,14.2,7.75,3.38-.44,4.36-4.35,7.75-3.88a6.35,6.35,0,0,1,3.87,2.58c.88,1.25,1,3,1.29,6.46a12.29,12.29,0,0,1,0,3.87c-.42,1.92-1.18,2.28-1.29,3.88,0,.55-.11,2.73,1.29,3.87,1.83,1.49,5.37.57,6.46-1.29s-.84-3.38-1.29-6.46c-1-6.7,6.48-9.08,7.74-18.07a22.82,22.82,0,0,0-1.29-10.33c-1.38-4.42-2.36-7.61-5.16-9C574,700.24,567,703,563,706.37c-.89.75-1.55,1.46-2.15,2a2,2,0,0,1-1.72.64c-2.91-.58-3.1-9-5.17-9-.74,0-.77,1.07-1.8,1.49-2.2.9-3.29-10.23-11.11-7.95-1.7.5-5-3.1-6.45-5.16-2-2.77-2.39-5-3.88-5.17-1.68-.15-2.33,2.64-3.87,2.59C525.48,685.67,523.9,683.51,521.64,674.09Z" transform="translate(-167.22 -563.44)"/><ellipse class="cls-14" cx="672.61" cy="94.79" rx="71.2" ry="68.84"/><text x="-167.22" y="-563.44"/><ellipse class="cls-15" cx="672.86" cy="95.37" rx="54.55" ry="52.75"/><ellipse class="cls-16" cx="673.41" cy="91.72" rx="36.58" ry="35.37"/><ellipse class="cls-17" cx="676.3" cy="95.71" rx="26.31" ry="25.44"/><ellipse class="cls-18" cx="679.44" cy="77.79" rx="3.48" ry="3.37"/><ellipse class="cls-19" cx="694.58" cy="80.21" rx="6.62" ry="6.4"/><ellipse class="cls-20" cx="677.45" cy="113.28" rx="13.93" ry="7.48"/><path class="cls-21" d="M625.26,629.77c.82-10-.17-12.75,1.29-24.53.88-7.13,1.69-9.7,3.87-11.62s5.42-2.21,11.62-2.58c4.17-.25,14.4-.86,15.5,2.58a2.56,2.56,0,0,1,0,1.29c-1.37,7.09-6.68,9.52-6.46,14.2.1,2.15.79,3.36,1.67,7.86a3.18,3.18,0,0,1-.38,2.47c-1.18,1.79-4.43,2.38-6.45,1.3-3.26-1.75-1.23-8-3.88-9-1.32-.53-3,.46-3.87,1.29-2.88,2.76-2,8.92,0,12.91,1.4,2.81,3.17,4.19,2.58,5.16s-2.78,1-3.87,0c-1.33-1.22,0-3.2-1.29-5.16-1.06-1.58-3.44-2.55-4.66-1.85-1.71,1-1,5.09-.51,8.31,1.17,7.77,4.09,10.53,2.58,12.91-1.35,2.13-5.58,2.9-7.74,1.29C622.66,644.63,624.38,640.3,625.26,629.77Z" transform="translate(-167.22 -563.44)"/><path class="cls-22" d="M1037.12,631.9c.09-1.79.21-3.32.21-3.32.32-3.74.72-5.68,1.12-13a67.15,67.15,0,0,0,.2-8.21c-.39-4.29-1.12-12.45-6.67-15.92-1.65-1-5-1.13-11.62-1.29-10.06-.25-12.64,1.13-14.21,2.58a11.12,11.12,0,0,0-2.58,3.87c-2.2,4.76,0,6.61-1.29,14.21-.42,2.55-1,4.19,0,5.16a3,3,0,0,0,3.87,0c.9-1-.12-2.24,0-5.16.05-1.07.2-4.46,2.59-6.46.33-.28,2.26-1.89,3.87-1.29,2.85,1.07,2.61,8.35,2.58,9-.16,4-1.41,6,0,7.75a3.67,3.67,0,0,0,2.58,1.29,3.76,3.76,0,0,0,2.59-1.29c2.1-2.46-.44-6.2,1.29-7.75a3.21,3.21,0,0,1,3.87,0c2.79,2.59-3.43,12.78-1.29,14.2.79.53,2.07-.58,2.58,0,.69.79-1.18,3.5-2.58,6.46-1.68,3.55-1.43,4.7-1.29,5.16a3.6,3.6,0,0,0,2.58,2.58c1.69.3,3.33-1.16,3.87-2.58.47-1.23-.16-1.72,0-3.87.12-1.57.23-3.05,1.3-3.88a3.22,3.22,0,0,1,3.87,0c.82.86.4,2.31-1.29,7.75a92.89,92.89,0,0,0-2.58,9c-.62,2.93-1.44,6.94,0,7.75a1.4,1.4,0,0,0,1.29,0c1.35-.81-.08-4.34,1.29-5.17a1.34,1.34,0,0,1,1.29,0c1,.61.56,3,0,6.46-1.15,7.11-.56,5.72-1.29,9-1,4.69-1.94,5.68-1.29,7.74.52,1.67,2,3.88,3.87,3.88s3.34-2.24,3.87-3.88c.9-2.77-.55-5.09-1.29-7.74-.64-2.34-.86-5.87-1.29-12.92A199.75,199.75,0,0,1,1037.12,631.9Z" transform="translate(-167.22 -563.44)"/><path class="cls-23" d="M943.45,718.52c.22,2.53.79,5,2.61,6.1,1.31.79,2.23.24,4.06,1.33.64.37,2.69,1.62,3.1,3.67.32,1.61-.67,2.35,0,3.87.07.16.56,1.29,1.29,1.29s1.21-1.11,1.29-1.29c.56-1.32-.2-2,0-3.87a3.81,3.81,0,0,1,1.24-2.87,2.62,2.62,0,0,1,2.24-.38,2.76,2.76,0,0,1,1.32,1,11,11,0,0,1,2.12,5.63,20.31,20.31,0,0,1-.32,4.85c-.37,2.71-.8,3.67-.15,4.71a2.62,2.62,0,0,0,2.59,1.29,2.29,2.29,0,0,0,1.29-1.29c.79-1.65-.08-3-.36-5.29-.36-3,.43-6.12,1.24-6.21.54,0,1.25,1.17,1.52,2.14.34,1.23-.06,1.9.4,2.33s1.83-1.93,1.65-3.88a11.15,11.15,0,0,1,.52-3.69c.55-2.4.82-3.63,1.64-3.88s1.52,1,2.44.78c1.4-.36,2.14-3.91,1.28-6.84a7.45,7.45,0,0,0-1.29-2.58c-2.8-3.48-7.1-1.12-10.33-3.87-3.57-3-1.37-7.71-5.17-10.33-2.29-1.59-4.17-.62-6.45-1.29-3.33-1-7.18-5.33-9-20.66C943.16,698.78,943,713.35,943.45,718.52Z" transform="translate(-167.22 -563.44)"/><path class="cls-24" d="M198.85,595.33a58.93,58.93,0,0,1,19.37-5.16c8.51-1,12.83-1.44,15.49,1.29,2.13,2.18,2.34,5.37,2.58,9,.06.8,0,.48,0,3.67.06,6.66.35,7.86,0,10.53-.31,2.26-.63,2.29-1.29,5.17-1.66,7.32-.87,12.87-1.29,12.91-.63.05-.94-13.82-3.87-14.21-1.37-.18-3.37,2.56-3.87,5.17-.62,3.17,1.17,5.22,0,6.45a3.1,3.1,0,0,1-3.88,0c-1.4-1.25-.29-3.69,0-7.74.32-4.51-.37-11-2.58-11.62-2.41-.71-5.17,5.93-7.75,5.16s-1.72-7.89-5.16-9c-1.64-.54-2.74.78-3.88,0-2-1.36.44-6-1.29-7.74-2.78-2.81-13.86,4.44-14.2,3.87C187,602.7,191.58,598.72,198.85,595.33Z" transform="translate(-167.22 -563.44)"/></svg>