<svg xmlns="http://www.w3.org/2000/svg" xmlns:xlink="http://www.w3.org/1999/xlink" viewBox="0 0 232.52 332.37"><defs><style>.cls-1{fill:url(#linear-gradient);}.cls-2{fill:url(#linear-gradient-2);}.cls-3,.cls-4,.cls-9{fill:#fff;}.cls-3{opacity:0.82;}.cls-4{opacity:0.92;}.cls-5{fill:#353534;stroke:#2a2600;stroke-miterlimit:10;stroke-width:0.92px;}.cls-6{font-size:32.29px;fill:#ff0;font-family:HWTArtz, HWT Artz;letter-spacing:0.2em;}.cls-7{letter-spacing:0.12em;}.cls-8{letter-spacing:0.2em;}.cls-9{opacity:0.8;}.cls-10{opacity:0.55;fill:url(#linear-gradient-3);}.cls-11{opacity:0.6;fill:url(#linear-gradient-4);}.cls-12{opacity:0.9;fill:url(#linear-gradient-5);}</style><linearGradient id="linear-gradient" x1="84.35" y1="128.92" x2="253.7" y2="92.33" gradientUnits="userSpaceOnUse"><stop offset="0" stop-color="#17a2b8"/><stop offset="0.08" stop-color="#25acbe"/><stop offset="0.34" stop-color="#4cc6cf"/><stop offset="0.57" stop-color="#67d9db"/><stop offset="0.78" stop-color="#78e4e2"/><stop offset="0.93" stop-color="#7ee8e5"/></linearGradient><linearGradient id="linear-gradient-2" x1="14.05" y1="73.42" x2="199.07" y2="73.42" gradientTransform="translate(14.06 54.51) scale(0.96 0.93)" gradientUnits="userSpaceOnUse"><stop offset="0" stop-color="#ffb806"/><stop offset="0.32" stop-color="#fccb04"/><stop offset="0.95" stop-color="#f3fc00"/><stop offset="0.98" stop-color="#f3ff00"/></linearGradient><linearGradient id="linear-gradient-3" x1="94.05" y1="86.24" x2="175.75" y2="86.24" gradientTransform="translate(34.84 -39.4) rotate(17.5)" gradientUnits="userSpaceOnUse"><stop offset="0" stop-color="#fff" stop-opacity="0.9"/><stop offset="1" stop-color="#fff7bb"/></linearGradient><linearGradient id="linear-gradient-4" x1="105.46" y1="82.99" x2="162.72" y2="82.99" gradientTransform="translate(24.24 -29.73) rotate(12.47)" xlink:href="#linear-gradient-3"/><linearGradient id="linear-gradient-5" x1="116.27" y1="78.77" x2="156.29" y2="78.77" gradientTransform="matrix(0.99, 0.38, -0.26, 0.67, 26.21, -27.81)" xlink:href="#linear-gradient-3"/></defs><title>play-button</title><g id="Layer_2" data-name="Layer 2"><g id="play-button"><ellipse class="cls-1" cx="116.26" cy="122.03" rx="116.26" ry="112.41"/><text/><ellipse class="cls-2" cx="116.66" cy="122.87" rx="89.08" ry="86.13"/><path class="cls-3" d="M50.21,43.64C32.85,56.67,26.61,72.47,25.75,72s5-20.28,22.31-32.73C63.25,28.29,80.81,27.54,81.13,28.58s-15,3.09-30.92,15.06"/><path class="cls-4" d="M168.8,212.85c-.3-.53,9.86-5.28,22-15.38,11.79-9.84,17.21-17.89,17.58-17.58s-7.27,13.9-22,24.17C177.71,210.11,169.06,213.33,168.8,212.85Z"/><path class="cls-4" d="M205.08,173.42a16.72,16.72,0,0,1,1.44-2.13c.19.12-2,5.66-7,10.35-3,2.76-6.06,4.44-6.19,4.28s3.46-2.54,7.5-7a48.12,48.12,0,0,0,4.28-5.48"/><path class="cls-4" d="M38.4,67.15c.17.16-3,3-6.39,8a68.38,68.38,0,0,0-4.54,8.36c-.21-.09,1.16-5.89,5.44-11.26C35.43,69.12,38.26,67,38.4,67.15Z"/><ellipse class="cls-5" cx="116.66" cy="122.87" rx="66.47" ry="68.74" transform="translate(-34.85 198.7) rotate(-73.07)"/><text class="cls-6" transform="translate(77.4 137.93)">PL<tspan class="cls-7" x="40.01" y="0">A</tspan><tspan class="cls-8" x="60.74" y="0">Y</tspan></text><path class="cls-4" d="M52.3,167c.77-.68,9.07,12.32,26.6,21.8,19.1,10.33,36.06,9.4,35.95,10.39s-20.53,3.91-39.06-6.59C59.51,183.41,51.49,167.76,52.3,167Z"/><path class="cls-9" d="M159.24,166.28c-.15-.24,3.69-1.85,7-6.08,3.63-4.61,4.16-9.16,4.42-9.09s.1,5.64-3.55,10.09C163.92,165.11,159.39,166.53,159.24,166.28Z"/><path class="cls-9" d="M59.34,96.14c.23.13-2.18,3.57-4.31,9.63-2.06,5.83-2.35,9.8-2.61,9.76S52,110.43,54,105C55.9,99.66,59.09,96,59.34,96.14Z"/><path class="cls-10" d="M173.57,104.8C178,96,163.32,77.11,146.11,68.19c-16.19-8.4-40.06-10.8-45.93-1.11-2.68,4.41-1.82,11.65,2,15.75,7.76,8.34,21.19-3.28,35.95,3.89,13.89,6.75,14.34,23,25.27,23.32C167.26,110.14,171.85,108.22,173.57,104.8Z"/><path class="cls-11" d="M164.35,90.3c1.6-7.15-11.84-16.49-22.71-20.6-11.23-4.24-27.75-5.71-31.35.86-1.5,2.74-.57,7,1.8,9.48,5.44,5.63,14.59-2.61,25.57,1.76,10.32,4.11,11.48,15,18.85,14.56C160,96.13,163.64,93.44,164.35,90.3Z"/><path class="cls-12" d="M158.73,88.5c.54-.54-5.88-11.63-17.95-16.3-10.43-4-20.82-1.61-20.85-.81s9.82-.34,21.5,4.86C152.8,81.31,158.27,89,158.73,88.5Z"/></g></g></svg>